<svg width="24" height="24" viewBox="-2 -2 24 24" fill="none" xmlns="http://www.w3.org/2000/svg">
<g id="arrow-back-outline">
<path id="Vector (Stroke)" fill-rule="evenodd" clip-rule="evenodd" d="M3.36244 9.80694C3.76459 9.43352 4.3933 9.45681 4.76671 9.85894L9.00682 14.4252L9.00681 3.0445C9.00681 2.49572 9.45169 2.05085 10.0005 2.05085C10.5492 2.05085 10.9941 2.49572 10.9941 3.0445L10.9941 14.4252L15.2342 9.85894C15.6076 9.4568 16.2363 9.43352 16.6385 9.80693C17.0406 10.1804 17.0639 10.8091 16.6905 11.2112L10.7286 17.6317C10.5406 17.8342 10.2768 17.9492 10.0005 17.9492C9.72416 17.9492 9.46034 17.8342 9.27233 17.6317L3.31044 11.2112C2.93702 10.8091 2.9603 10.1804 3.36244 9.80694Z" fill="#fff"/>
</g>
</svg>
