<svg width="20" height="20" viewBox="0 0 20 20" fill="none" xmlns="http://www.w3.org/2000/svg">
<g id="tick-circle-solid" clip-path="url(#clip0_47_63)">
<circle id="Ellipse 9" cx="10" cy="10" r="10" fill="white"/>
<path id="Vector" fill-rule="evenodd" clip-rule="evenodd" d="M0 10C0 7.34784 1.05357 4.8043 2.92893 2.92893C4.8043 1.05357 7.34784 0 10 0C12.6522 0 15.1957 1.05357 17.0711 2.92893C18.9464 4.8043 20 7.34784 20 10C20 12.6522 18.9464 15.1957 17.0711 17.0711C15.1957 18.9464 12.6522 20 10 20C7.34784 20 4.8043 18.9464 2.92893 17.0711C1.05357 15.1957 0 12.6522 0 10ZM9.42933 14.28L15.5 6.5L14.1467 5.25067L9.23733 11.3853L5.76 8.488L4.5 10L9.42933 14.28Z" fill="url(#paint0_linear_47_63)"/>
</g>
<defs>
<linearGradient id="paint0_linear_47_63" x1="0" y1="10" x2="20" y2="10" gradientUnits="userSpaceOnUse">
<stop stop-color="#8968EA"/>
<stop offset="0.501666" stop-color="#9881EF"/>
<stop offset="1" stop-color="#CA88F3"/>
</linearGradient>
<clipPath id="clip0_47_63">
<rect width="20" height="20" fill="white"/>
</clipPath>
</defs>
</svg>
