<svg width="24" height="24" viewBox="-2 -2 24 24" fill="none" xmlns="http://www.w3.org/2000/svg">
<path d="M11.1667 6.66668C11.1667 6.94282 11.3905 7.16668 11.6667 7.16668C11.9428 7.16668 12.1667 6.94282 12.1667 6.66668H11.1667ZM10 3.33334V2.83334V3.33334ZM4.16667 3.33334V2.83334V3.33334ZM2.5 5.00001H2H2.5ZM2.5 15H2H2.5ZM12.1667 13.3333C12.1667 13.0572 11.9428 12.8333 11.6667 12.8333C11.3905 12.8333 11.1667 13.0572 11.1667 13.3333H12.1667ZM5.83333 9.50001C5.55719 9.50001 5.33333 9.72387 5.33333 10C5.33333 10.2762 5.55719 10.5 5.83333 10.5V9.50001ZM17.5 10L17.8536 10.3536C18.0488 10.1583 18.0488 9.84172 17.8536 9.64646L17.5 10ZM15.3536 7.14646C15.1583 6.95119 14.8417 6.95119 14.6464 7.14646C14.4512 7.34172 14.4512 7.6583 14.6464 7.85356L15.3536 7.14646ZM14.6464 12.1465C14.4512 12.3417 14.4512 12.6583 14.6464 12.8536C14.8417 13.0488 15.1583 13.0488 15.3536 12.8536L14.6464 12.1465ZM12.1667 6.66668V5.00001H11.1667V6.66668H12.1667ZM12.1667 5.00001C12.1667 4.42537 11.9384 3.87427 11.5321 3.46795L10.825 4.17505C11.0437 4.39384 11.1667 4.69059 11.1667 5.00001H12.1667ZM11.5321 3.46795C11.1257 3.06162 10.5746 2.83334 10 2.83334V3.83334C10.3094 3.83334 10.6062 3.95626 10.825 4.17505L11.5321 3.46795ZM10 2.83334H4.16667V3.83334H10V2.83334ZM4.16667 2.83334C3.59203 2.83334 3.04093 3.06162 2.6346 3.46795L3.34171 4.17505C3.5605 3.95626 3.85725 3.83334 4.16667 3.83334V2.83334ZM2.6346 3.46795C2.22827 3.87427 2 4.42537 2 5.00001H3C3 4.69059 3.12292 4.39384 3.34171 4.17505L2.6346 3.46795ZM2 5.00001V15H3V5.00001H2ZM2 15C2 15.5746 2.22827 16.1257 2.6346 16.5321L3.34171 15.825C3.12292 15.6062 3 15.3094 3 15H2ZM2.6346 16.5321C3.04093 16.9384 3.59203 17.1667 4.16667 17.1667V16.1667C3.85725 16.1667 3.5605 16.0438 3.34171 15.825L2.6346 16.5321ZM4.16667 17.1667H10V16.1667H4.16667V17.1667ZM10 17.1667C10.5746 17.1667 11.1257 16.9384 11.5321 16.5321L10.825 15.825C10.6062 16.0438 10.3094 16.1667 10 16.1667V17.1667ZM11.5321 16.5321C11.9384 16.1257 12.1667 15.5746 12.1667 15H11.1667C11.1667 15.3094 11.0437 15.6062 10.825 15.825L11.5321 16.5321ZM12.1667 15V13.3333H11.1667V15H12.1667ZM5.83333 10.5H17.5V9.50001H5.83333V10.5ZM17.8536 9.64646L15.3536 7.14646L14.6464 7.85356L17.1464 10.3536L17.8536 9.64646ZM15.3536 12.8536L17.8536 10.3536L17.1464 9.64646L14.6464 12.1465L15.3536 12.8536Z" fill="#fff"/>
</svg>
