<svg width="20" height="20" viewBox="0 0 20 20" fill="none" xmlns="http://www.w3.org/2000/svg">
<g id="arrow-back-outline" clip-path="url(#clip0_71_1004)">
<path id="Vector (Stroke)" fill-rule="evenodd" clip-rule="evenodd" d="M14.5571 14.8303C14.0087 14.81 13.5806 14.349 13.6009 13.8006L13.8315 7.57352L5.78414 15.6209C5.39609 16.0089 4.76695 16.0089 4.37891 15.6209C3.99086 15.2329 3.99086 14.6037 4.37891 14.2157L12.4263 6.16829L6.19924 6.39892C5.65084 6.41923 5.18981 5.99113 5.1695 5.44273C5.14919 4.89433 5.57729 4.4333 6.12569 4.41299L14.8814 4.0887C15.1575 4.07847 15.4254 4.18368 15.6208 4.37905C15.8161 4.57443 15.9213 4.84233 15.9111 5.11844L15.5868 13.8741C15.5665 14.4225 15.1055 14.8506 14.5571 14.8303Z" fill="white"/>
</g>
<defs>
<clipPath id="clip0_71_1004">
<rect width="20" height="20" fill="white" transform="translate(20 20) rotate(180)"/>
</clipPath>
</defs>
</svg>
