<svg width="20" height="20" viewBox="0 0 20 20" fill="none" xmlns="http://www.w3.org/2000/svg">
<g id="drivers-license">
<path id="Vector" d="M2.5 3H17.5C18.2875 3 19 3.73889 19 4.55556V15.4444C19 16.2611 18.2875 17 17.5 17H2.5C1.7125 17 1 16.2611 1 15.4444V4.55556C1 3.73889 1.7125 3 2.5 3ZM11.5 5.33333V6.11111H17.5V5.33333H11.5ZM11.5 6.88889V7.66667H17.5V6.88889H11.5ZM11.5 8.44444V9.22222H16.75V8.44444H11.5ZM7 11.4856C5.5 11.4856 2.5 12.3333 2.5 13.8889V14.6667H11.5V13.8889C11.5 12.3333 8.5 11.4856 7 11.4856ZM7 5.33333C6.40326 5.33333 5.83097 5.57917 5.40901 6.01675C4.98705 6.45434 4.75 7.04783 4.75 7.66667C4.75 8.28551 4.98705 8.879 5.40901 9.31658C5.83097 9.75417 6.40326 10 7 10C7.59674 10 8.16903 9.75417 8.59099 9.31658C9.01295 8.879 9.25 8.28551 9.25 7.66667C9.25 7.04783 9.01295 6.45434 8.59099 6.01675C8.16903 5.57917 7.59674 5.33333 7 5.33333Z" fill="white"/>
</g>
</svg>
