<svg width="20" height="20" viewBox="0 0 20 20" fill="none" xmlns="http://www.w3.org/2000/svg">
<g id="export">
<path id="Vector" d="M9.5 0.5L6 4.77273L8.625 4.77273L8.625 12.1364L10.375 12.1364L10.375 4.77273L13 4.77273M15.75 19.5L3.25 19.5C2.78587 19.5 2.34075 19.3276 2.01256 19.0207C1.68437 18.7138 1.5 18.2976 1.5 17.8636L1.5 8.04545C1.5 7.61146 1.68437 7.19525 2.01256 6.88837C2.34075 6.58149 2.78587 6.40909 3.25 6.40909L5.875 6.40909L5.875 8.04545L3.25 8.04545L3.25 17.8636L15.75 17.8636L15.75 8.04545L13.125 8.04545L13.125 6.40909L15.75 6.40909C16.2141 6.40909 16.6592 6.58149 16.9874 6.88837C17.3156 7.19525 17.5 7.61146 17.5 8.04545L17.5 17.8636C17.5 18.2976 17.3156 18.7138 16.9874 19.0207C16.6592 19.3276 16.2141 19.5 15.75 19.5Z" fill="white"/>
<rect id="Rectangle 1514" x="6" y="9" width="7" height="7" rx="3.5" fill="white"/>
</g>
</svg>
