<svg width="20" height="20" viewBox="0 0 20 20" fill="none" xmlns="http://www.w3.org/2000/svg">
<g id="arrow-back-outline" clip-path="url(#clip0_71_996)">
<path id="Vector (Stroke)" fill-rule="evenodd" clip-rule="evenodd" d="M5.44292 5.1697C5.99133 5.19001 6.41943 5.65104 6.39912 6.19944L6.16848 12.4265L14.2159 4.3791C14.6039 3.99106 15.2331 3.99106 15.6211 4.3791C16.0091 4.76715 16.0091 5.39629 15.6211 5.78433L7.57371 13.8317L13.8008 13.6011C14.3492 13.5808 14.8102 14.0089 14.8305 14.5573C14.8508 15.1057 14.4227 15.5667 13.8743 15.587L5.11864 15.9113C4.84253 15.9215 4.57462 15.8163 4.37925 15.6209C4.18387 15.4256 4.07867 15.1577 4.0889 14.8816L4.41318 6.12589C4.43349 5.57749 4.89452 5.14938 5.44292 5.1697Z" fill="white"/>
</g>
<defs>
<clipPath id="clip0_71_996">
<rect width="20" height="20" fill="white"/>
</clipPath>
</defs>
</svg>
