<svg width="14" height="14" viewBox="0 0 14 14" fill="none" xmlns="http://www.w3.org/2000/svg">
<g id="home" clip-path="url(#clip0_76_1102)">
<path id="Vector" d="M7.15184 2.76937C7.11113 2.73043 7.05696 2.70869 7.00063 2.70869C6.94429 2.70869 6.89012 2.73043 6.84941 2.76937L1.81543 7.57832C1.79405 7.59877 1.77704 7.62334 1.76543 7.65056C1.75383 7.67777 1.74786 7.70705 1.74789 7.73664L1.74707 12.25C1.74707 12.4821 1.83926 12.7046 2.00335 12.8687C2.16745 13.0328 2.39001 13.125 2.62207 13.125H5.2498C5.36584 13.125 5.47712 13.0789 5.55916 12.9969C5.64121 12.9148 5.6873 12.8035 5.6873 12.6875V8.96875C5.6873 8.91073 5.71035 8.85509 5.75138 8.81407C5.7924 8.77304 5.84804 8.75 5.90605 8.75H8.09355C8.15157 8.75 8.20721 8.77304 8.24823 8.81407C8.28926 8.85509 8.3123 8.91073 8.3123 8.96875V12.6875C8.3123 12.8035 8.3584 12.9148 8.44045 12.9969C8.52249 13.0789 8.63377 13.125 8.7498 13.125H11.3764C11.6085 13.125 11.8311 13.0328 11.9952 12.8687C12.1593 12.7046 12.2514 12.4821 12.2514 12.25V7.73664C12.2515 7.70705 12.2455 7.67777 12.2339 7.65056C12.2223 7.62334 12.2053 7.59877 12.1839 7.57832L7.15184 2.76937Z" fill="url(#paint0_linear_76_1102)"/>
<path id="Vector_2" d="M13.4233 6.67598L11.378 4.71926V1.75C11.378 1.63397 11.3319 1.52269 11.2499 1.44064C11.1678 1.35859 11.0566 1.3125 10.9405 1.3125H9.62802C9.51198 1.3125 9.40071 1.35859 9.31866 1.44064C9.23661 1.52269 9.19052 1.63397 9.19052 1.75V2.625L7.60677 1.1107C7.45856 0.960859 7.23817 0.875 7.00001 0.875C6.76267 0.875 6.54282 0.960859 6.39462 1.11098L0.578604 6.67543C0.408526 6.83949 0.387198 7.10938 0.541963 7.28711C0.580827 7.33197 0.628414 7.36846 0.681826 7.39434C0.735239 7.42023 0.793361 7.43498 0.852654 7.43769C0.911948 7.4404 0.971173 7.43102 1.02673 7.41012C1.08228 7.38921 1.133 7.35722 1.17579 7.31609L6.84962 1.89437C6.89033 1.85543 6.94449 1.8337 7.00083 1.8337C7.05717 1.8337 7.11133 1.85543 7.15204 1.89437L12.8264 7.31609C12.91 7.39625 13.022 7.44 13.1378 7.43774C13.2535 7.43549 13.3637 7.38741 13.4441 7.30406C13.612 7.13016 13.5981 6.84305 13.4233 6.67598Z" fill="url(#paint1_linear_76_1102)"/>
</g>
<defs>
<linearGradient id="paint0_linear_76_1102" x1="1.74707" y1="7.91685" x2="12.2514" y2="7.91685" gradientUnits="userSpaceOnUse">
<stop stop-color="#8968EA"/>
<stop offset="0.501666" stop-color="#9881EF"/>
<stop offset="1" stop-color="#CA88F3"/>
</linearGradient>
<linearGradient id="paint1_linear_76_1102" x1="0.4375" y1="4.15657" x2="13.5625" y2="4.15657" gradientUnits="userSpaceOnUse">
<stop stop-color="#8968EA"/>
<stop offset="0.501666" stop-color="#9881EF"/>
<stop offset="1" stop-color="#CA88F3"/>
</linearGradient>
<clipPath id="clip0_76_1102">
<rect width="14" height="14" fill="white"/>
</clipPath>
</defs>
</svg>
