<svg width="24" height="24" viewBox="-3.5 -3.5 24 24" fill="none" xmlns="http://www.w3.org/2000/svg">
<g id="exchange-alt">
<path id="Vector" d="M0.849609 5.88236V5.40641C0.849609 5.01212 1.1707 4.69249 1.5668 4.69249H12.3246V3.26464C12.3246 2.62904 13.0985 2.31149 13.5489 2.75981L15.9396 5.13955C16.2196 5.41837 16.2196 5.8704 15.9396 6.14919L13.5489 8.52894C13.1002 8.9755 12.3246 8.66238 12.3246 8.02413V6.59629H1.5668C1.1707 6.59629 0.849609 6.27666 0.849609 5.88236ZM15.4324 10.4039H4.67461V8.97603C4.67461 8.34201 3.90178 8.02175 3.45028 8.4712L1.05966 10.8509C0.779594 11.1298 0.779594 11.5818 1.05966 11.8606L3.45028 14.2403C3.89936 14.6873 4.67461 14.3732 4.67461 13.7355V12.3077H15.4324C15.8285 12.3077 16.1496 11.988 16.1496 11.5938V11.1178C16.1496 10.7235 15.8285 10.4039 15.4324 10.4039Z" fill="white"/>
</g>
</svg>
