<svg width="24" height="24" viewBox="-3.5 -3.5 24 24" fill="none" xmlns="http://www.w3.org/2000/svg">
<g id="monitor-fill">
<path id="Vector" d="M13.4587 2.12503H3.54199C2.97841 2.12503 2.43791 2.34891 2.03939 2.74743C1.64088 3.14594 1.41699 3.68645 1.41699 4.25003V7.7917H15.5837V4.25003C15.5837 3.68645 15.3598 3.14594 14.9613 2.74743C14.5627 2.34891 14.0222 2.12503 13.4587 2.12503ZM1.41699 9.9167C1.41699 10.4803 1.64088 11.0208 2.03939 11.4193C2.43791 11.8178 2.97841 12.0417 3.54199 12.0417H7.79199V13.4584H4.95866C4.7708 13.4584 4.59063 13.533 4.45779 13.6658C4.32495 13.7987 4.25033 13.9788 4.25033 14.1667C4.25033 14.3546 4.32495 14.5347 4.45779 14.6676C4.59063 14.8004 4.7708 14.875 4.95866 14.875H12.042C12.2299 14.875 12.41 14.8004 12.5429 14.6676C12.6757 14.5347 12.7503 14.3546 12.7503 14.1667C12.7503 13.9788 12.6757 13.7987 12.5429 13.6658C12.41 13.533 12.2299 13.4584 12.042 13.4584H9.20866V12.0417H13.4587C14.0222 12.0417 14.5627 11.8178 14.9613 11.4193C15.3598 11.0208 15.5837 10.4803 15.5837 9.9167V9.20836H1.41699V9.9167Z" fill="white"/>
</g>
</svg>
