<svg width="24" height="24" viewBox="-3.5 -3.5 24 24" fill="none" xmlns="http://www.w3.org/2000/svg">
<g id="docs">
<path id="Vector" d="M5.25 9.35H11.75V7.65H5.25V9.35ZM5.25 11.9H11.75V10.2H5.25V11.9ZM5.25 14.45H9.3125V12.75H5.25V14.45ZM3.625 17C3.17813 17 2.79571 16.8337 2.47775 16.501C2.15979 16.1684 2.00054 15.7681 2 15.3V1.7C2 1.2325 2.15925 0.832433 2.47775 0.4998C2.79625 0.167167 3.17867 0.000566667 3.625 0H10.125L15 5.1V15.3C15 15.7675 14.841 16.1678 14.5231 16.501C14.2051 16.8342 13.8224 17.0006 13.375 17H3.625ZM9.3125 5.95H13.375L9.3125 1.7V5.95Z" fill="white"/>
</g>
</svg>
