<svg width="60" height="60" viewBox="0 0 60 60" fill="none" xmlns="http://www.w3.org/2000/svg">
<g id="save">
<path id="Vector" d="M45.4639 19.1765H47V13H13V41H47V34.8235H45.4639C42.9227 34.8235 40.8554 32.7456 40.8554 30.1912V23.8088C40.8554 21.2544 42.9227 19.1765 45.4639 19.1765ZM36.247 28.6471H34.5556C34.3561 29.631 33.9653 30.5443 33.4314 31.354L34.6329 32.5617C35.2329 33.1648 35.2329 34.1421 34.6329 34.7452C34.0328 35.3484 33.0608 35.3484 32.4607 34.7452L31.2592 33.5375C30.4537 34.0743 29.5453 34.4667 28.5663 34.6673V36.3676C28.5663 37.2211 27.8792 37.9118 27.0301 37.9118C26.181 37.9118 25.2892 37.2211 25.2892 36.3676V34.6673C24.3101 34.4667 23.4017 34.0743 22.5962 33.5375L21.3947 34.7452C20.7946 35.3484 19.8226 35.3484 19.2225 34.7452C18.6225 34.1421 18.6225 33.1648 19.2225 32.5617L20.424 31.354C19.8901 30.5443 19.4993 29.631 19.2998 28.6471H17.6084C16.7594 28.6471 16.0723 27.9564 16.0723 27.1029C16.0723 26.2495 16.7594 25.3529 17.6084 25.3529H19.2998C19.4993 24.369 19.8901 23.4557 20.424 22.646L19.2225 21.4383C18.6225 20.8352 18.6225 19.8579 19.2225 19.2548C19.8225 18.6517 20.7947 18.6517 21.3947 19.2548L22.5962 20.4625C23.4017 19.9257 24.3101 19.5333 25.2892 19.3327V17.6324C25.2892 16.7789 26.181 16.0882 27.0301 16.0882C27.8792 16.0882 28.5663 16.7789 28.5663 17.6324V19.3327C29.5453 19.5333 30.4537 19.9257 31.2592 20.4625L32.4607 19.2548C33.0607 18.6517 34.0329 18.6517 34.6329 19.2548C35.2329 19.8579 35.2329 20.8352 34.6329 21.4383L33.4314 22.646C33.9653 23.4557 34.3561 24.369 34.5556 25.3529H36.247C37.0961 25.3529 37.7831 26.2495 37.7831 27.1029C37.7831 27.9564 37.0961 28.6471 36.247 28.6471Z" fill="white"/>
<path id="Vector_2" d="M45.4504 22C44.5969 22 43.9008 22.7309 43.9008 23.6304V30.3696C43.9008 31.2691 44.5969 32 45.4504 32H47V22H45.4504ZM26.8554 22C24.2919 22 22 24.4115 22 27.1087C22 29.8059 24.2919 32 26.8554 32C29.4188 32 31.5041 29.8059 31.5041 27.1087C31.5041 24.4115 29.4188 22 26.8554 22ZM26.8554 28.7391C25.9996 28.7391 25.0992 28.0091 25.0992 27.1087C25.0992 26.208 25.9996 25.2609 26.8554 25.2609C27.7112 25.2609 28.405 26.208 28.405 27.1087C28.405 28.0091 27.7112 28.7391 26.8554 28.7391Z" fill="url(#paint0_linear_48_236)"/>
<path id="Vector_3" d="M51.4297 4H8.57031C6.05014 4 4 6.05014 4 8.57031V45.3359C4 47.3195 5.27745 48.9946 7.04688 49.6256V54.4766C7.04688 55.3186 7.72826 56 8.57031 56H17.7109C18.553 56 19.2344 55.3186 19.2344 54.4766V49.9062H40.7656V54.4766C40.7656 55.3186 41.447 56 42.2891 56H51.4297C52.2717 56 52.9531 55.3186 52.9531 54.4766V49.6256C54.7225 48.9946 56 47.3195 56 45.3359V8.57031C56 6.05014 53.9499 4 51.4297 4ZM49.9062 42.2891C49.9062 43.1311 49.2249 43.8125 48.3828 43.8125H11.6172C10.7751 43.8125 10.0938 43.1311 10.0938 42.2891V11.6172C10.0938 10.7751 10.7751 10.0938 11.6172 10.0938H48.3828C49.2249 10.0938 49.9062 10.7751 49.9062 11.6172V42.2891Z" fill="url(#paint1_linear_48_236)"/>
</g>
<defs>
<linearGradient id="paint0_linear_48_236" x1="22" y1="27" x2="47" y2="27" gradientUnits="userSpaceOnUse">
<stop stop-color="#8968EA"/>
<stop offset="0.501666" stop-color="#9881EF"/>
<stop offset="1" stop-color="#CA88F3"/>
</linearGradient>
<linearGradient id="paint1_linear_48_236" x1="4" y1="30" x2="56" y2="30" gradientUnits="userSpaceOnUse">
<stop stop-color="#8968EA"/>
<stop offset="0.501666" stop-color="#9881EF"/>
<stop offset="1" stop-color="#CA88F3"/>
</linearGradient>
</defs>
</svg>
