<svg width="60" height="60" viewBox="0 0 60 60" fill="none" xmlns="http://www.w3.org/2000/svg">
<g id="Frame" clip-path="url(#clip0_48_241)">
<path id="Vector" fill-rule="evenodd" clip-rule="evenodd" d="M34.7835 22.1688C36.0002 22.4579 37.1628 22.9397 38.2274 23.596L40.4658 22.6007L43.1023 25.2372L42.1108 27.4756C42.7678 28.5412 43.2496 29.7052 43.538 30.9234L45.8215 31.8022V35.5316L43.538 36.4105C43.2488 37.6273 42.7643 38.7879 42.1108 39.8545L43.1023 42.0928L40.4658 44.7294L38.2274 43.7379C37.1632 44.3949 36.0004 44.8767 34.7835 45.1651L33.9045 47.4485H30.1751L29.2963 45.1651C28.0757 44.8759 26.9152 44.3914 25.8485 43.7379L23.6102 44.7294L20.9736 42.0928L21.9689 39.8545C21.3117 38.7916 20.8309 37.6273 20.5379 36.4105L18.2545 35.5316V31.8022L20.5379 30.9234C20.8294 29.7056 21.3124 28.5419 21.9689 27.4756L20.9736 25.2372L23.6102 22.6007L25.8485 23.596C26.9131 22.9397 28.0758 22.4579 29.2925 22.1688L30.1751 19.8815H33.9045L34.7835 22.1688ZM32.0376 25.762C27.6711 25.762 24.135 29.2981 24.135 33.6646C24.135 38.0312 27.6711 41.5718 32.0376 41.5718C36.4041 41.5718 39.9448 38.0312 39.9448 33.6646C39.9448 29.298 36.4041 25.762 32.0376 25.762ZM27.3237 34.5708C26.9564 34.2035 26.9564 33.6072 27.3237 33.2399C27.691 32.8726 28.2874 32.8726 28.6547 33.2399L30.3835 34.9686L35.4582 30.3649C35.8429 30.016 36.4387 30.0449 36.7876 30.4296C36.9552 30.6146 37.0426 30.8585 37.0304 31.1078C37.0183 31.3571 36.9077 31.5914 36.7229 31.7592L30.9842 36.9651C30.8052 37.1275 30.5706 37.2148 30.3289 37.2089C30.0873 37.203 29.8572 37.1044 29.6863 36.9335L27.3237 34.5708ZM34.379 17.1449C34.2924 17.145 34.2068 17.1259 34.1284 17.089C34.05 17.0521 33.9807 16.9984 33.9255 16.9316C33.8703 16.8648 33.8305 16.7866 33.809 16.7027C33.7876 16.6187 33.7849 16.5311 33.8012 16.446C34.507 12.9907 37.5617 10.3893 41.2237 10.3893C44.8876 10.3893 47.9424 12.9908 48.6428 16.4469C48.659 16.5315 48.6563 16.6185 48.6349 16.7019C48.6135 16.7853 48.574 16.8629 48.5192 16.9292C48.4643 16.9955 48.3955 17.0489 48.3176 17.0856C48.2397 17.1222 48.1547 17.1412 48.0687 17.1412C45.5637 17.1449 36.8847 17.1449 34.379 17.1449ZM41.2237 9.21282C39.1158 9.21282 37.3977 7.49258 37.3977 5.38482C37.3977 3.27694 39.1158 1.5567 41.2237 1.5567C43.3336 1.5567 45.0517 3.27694 45.0517 5.38482C45.0517 7.49258 43.3336 9.21282 41.2237 9.21282ZM2.26748 42.3848C2.18084 42.3848 2.09528 42.3657 2.01689 42.3288C1.93851 42.2919 1.86925 42.2381 1.81405 42.1714C1.75885 42.1046 1.71908 42.0265 1.69759 41.9425C1.6761 41.8586 1.67341 41.771 1.68971 41.6859C2.39559 38.2307 5.45018 35.6293 9.11218 35.6293C12.7762 35.6293 15.831 38.2308 16.5314 41.6869C16.5475 41.7715 16.5447 41.8585 16.5234 41.9418C16.502 42.0252 16.4624 42.1028 16.4076 42.1691C16.3528 42.2354 16.284 42.2888 16.2061 42.3255C16.1283 42.3621 16.0433 42.3811 15.9572 42.3812C13.4522 42.3848 4.77312 42.3848 2.26748 42.3848ZM9.11218 34.4528C7.0043 34.4528 5.28618 32.7326 5.28618 30.6247C5.28618 28.5169 7.0043 26.7967 9.11218 26.7967C11.2221 26.7967 12.9402 28.5169 12.9402 30.6247C12.9402 32.7326 11.2221 34.4528 9.11218 34.4528ZM44.0469 53.0609C43.9603 53.0609 43.8747 53.0418 43.7963 53.0049C43.7179 52.968 43.6487 52.9143 43.5935 52.8475C43.5383 52.7807 43.4985 52.7026 43.477 52.6186C43.4555 52.5347 43.4528 52.4471 43.4691 52.362C44.175 48.9067 47.2297 46.3053 50.8916 46.3053C54.5556 46.3053 57.6104 48.9068 58.3108 52.3629C58.3269 52.4475 58.3242 52.5345 58.3028 52.6178C58.2814 52.7012 58.2418 52.7788 58.187 52.8451C58.1322 52.9114 58.0634 52.9648 57.9855 53.0015C57.9077 53.0381 57.8227 53.0571 57.7367 53.0572C55.2316 53.0609 46.5525 53.0609 44.0469 53.0609ZM50.8916 45.1288C48.7838 45.1288 47.0656 43.4086 47.0656 41.3008C47.0656 39.1929 48.7838 37.4727 50.8916 37.4727C53.0015 37.4727 54.7197 39.1929 54.7197 41.3008C54.7197 43.4086 53.0015 45.1288 50.8916 45.1288Z" fill="url(#paint0_linear_48_241)"/>
<g id="Vector_2">
<path fill-rule="evenodd" clip-rule="evenodd" d="M16.9721 8.80339C21.9792 5.37778 27.9786 3.70407 34.0359 4.04291C34.3007 4.05773 34.5488 4.17713 34.7255 4.37484C34.9023 4.57256 34.9933 4.8324 34.9785 5.09721L34.9715 5.22167C34.9407 5.77309 34.4686 6.1951 33.9172 6.16425C28.3279 5.85159 22.792 7.39598 18.1718 10.5569C13.5515 13.7179 10.1062 18.3179 8.37236 23.6408C8.29022 23.8929 8.11126 24.1021 7.87486 24.2224C7.63847 24.3426 7.36399 24.364 7.11181 24.2819L6.99329 24.2433C6.46816 24.0722 6.18112 23.5078 6.35218 22.9827C8.23118 17.2142 11.965 12.229 16.9721 8.80339Z" fill="white"/>
<path fill-rule="evenodd" clip-rule="evenodd" d="M46.6319 9.06031C46.9436 8.60441 47.5659 8.48753 48.0218 8.79926C52.5032 11.8635 55.9774 16.1856 58.0066 21.2209C60.0359 26.2563 60.5293 31.7796 59.4248 37.0949C59.3124 37.6356 58.783 37.9829 58.2422 37.8705L58.1202 37.8452C57.8605 37.7912 57.6329 37.6363 57.4875 37.4145C57.342 37.1928 57.2906 36.9223 57.3446 36.6626C58.3637 31.758 57.9084 26.6614 56.036 22.0151C54.1635 17.3688 50.9577 13.3806 46.8225 10.5531C46.6036 10.4034 46.4531 10.1729 46.4042 9.91223C46.3552 9.65157 46.4118 9.38214 46.5615 9.16321L46.6319 9.06031Z" fill="white"/>
<path fill-rule="evenodd" clip-rule="evenodd" d="M10.2387 45.6809C10.693 45.3667 11.3159 45.4803 11.63 45.9345C14.9085 50.6746 19.703 54.1575 25.2245 55.81C30.746 57.4624 36.6655 57.186 42.009 55.0262C42.2549 54.9269 42.5302 54.9292 42.7744 55.0328C43.0185 55.1364 43.2115 55.3328 43.3109 55.5786L43.3576 55.6942C43.5646 56.2063 43.3173 56.7891 42.8052 56.9961C37.0143 59.3367 30.5991 59.6363 24.6153 57.8454C18.6315 56.0546 13.4356 52.2801 9.88261 47.1431C9.73174 46.9249 9.67371 46.6558 9.72127 46.3949C9.76883 46.134 9.91809 45.9026 10.1362 45.7518L10.2387 45.6809Z" fill="white"/>
</g>
</g>
<defs>
<linearGradient id="paint0_linear_48_241" x1="1.6792" y1="27.3088" x2="58.3211" y2="27.3088" gradientUnits="userSpaceOnUse">
<stop stop-color="#8968EA"/>
<stop offset="0.501666" stop-color="#9881EF"/>
<stop offset="1" stop-color="#CA88F3"/>
</linearGradient>
<clipPath id="clip0_48_241">
<rect width="60" height="60" fill="white"/>
</clipPath>
</defs>
</svg>
