<svg width="60" height="60" viewBox="0 0 60 60" fill="none" xmlns="http://www.w3.org/2000/svg">
<g id="money" clip-path="url(#clip0_48_216)">
<path id="Vector" d="M4.3125 29.401L18.6281 43.5385L32.775 34.6978L31.0125 32.9635L21.3281 38.9541C21.1236 39.0804 20.8784 39.1236 20.6431 39.0748C20.4077 39.0259 20.1999 38.8888 20.0625 38.6916C19.9657 38.5526 19.8367 38.439 19.6865 38.3607C19.5363 38.2823 19.3694 38.2414 19.2 38.2416C18.936 38.2417 18.6805 38.3346 18.4781 38.5041C18.3021 38.6442 18.0821 38.7173 17.8572 38.7104C17.6323 38.7035 17.4172 38.6171 17.25 38.4666L10.4156 32.2228C10.3184 32.1327 10.2411 32.0232 10.1888 31.9014C10.1366 31.7795 10.1105 31.6481 10.1123 31.5155C10.114 31.383 10.1436 31.2523 10.1991 31.1319C10.2546 31.0114 10.3347 30.904 10.4344 30.8166C10.5547 30.7154 10.6515 30.5891 10.7179 30.4466C10.7843 30.3041 10.8187 30.1488 10.8188 29.9916C10.8215 29.7695 10.7524 29.5525 10.6219 29.3728C10.5495 29.2677 10.499 29.149 10.4735 29.0239C10.4479 28.8989 10.4478 28.7699 10.4732 28.6448C10.4986 28.5197 10.5489 28.401 10.6211 28.2957C10.6934 28.1905 10.7861 28.1008 10.8938 28.0322L20.1844 22.2853L18.45 20.5697L4.3125 29.401Z" fill="url(#paint0_linear_48_216)"/>
<path id="Vector_2" d="M18.0094 36.6103C18.493 36.4062 19.0214 36.3317 19.5426 36.3942C20.0637 36.4566 20.5596 36.6539 20.9812 36.9666L29.6344 31.6041L21.5625 23.6447L12.5813 29.1947C12.7869 29.9433 12.6963 30.7424 12.3281 31.4259L18.0094 36.6103ZM19.4906 28.9884C20.2191 28.9408 20.937 29.1814 21.4895 29.6585C22.042 30.1356 22.3848 30.8108 22.4438 31.5384C22.3824 32.2643 22.0387 32.9372 21.4865 33.4123C20.9342 33.8874 20.2176 34.1268 19.4906 34.0791C18.7634 34.1283 18.0459 33.8894 17.4933 33.414C16.9407 32.9386 16.5974 32.2649 16.5375 31.5384C16.5951 30.8103 16.9374 30.1342 17.4902 29.6568C18.0431 29.1794 18.7619 28.9393 19.4906 28.9884ZM41.9906 13.1822C41.507 13.3863 40.9786 13.4608 40.4574 13.3983C39.9363 13.3358 39.4404 13.1386 39.0187 12.8259L30.2437 18.2541L38.325 26.2322L47.4188 20.5978C47.2131 19.8492 47.3037 19.0501 47.6719 18.3666L41.9906 13.1822ZM40.575 20.8791C39.8481 20.9268 39.1314 20.6874 38.5792 20.2123C38.0269 19.7372 37.6832 19.0643 37.6219 18.3384C37.7263 17.6298 38.082 16.9823 38.6242 16.5142C39.1663 16.0461 39.8587 15.7885 40.575 15.7885C41.2913 15.7885 41.9837 16.0461 42.5258 16.5142C43.068 16.9823 43.4237 17.6298 43.5281 18.3384C43.4682 19.0649 43.1249 19.7386 42.5723 20.214C42.0197 20.6894 41.3023 20.9283 40.575 20.8791Z" fill="url(#paint1_linear_48_216)"/>
<path id="Vector_3" d="M38.6719 10.8384C38.8762 10.7114 39.1216 10.6678 39.3572 10.7167C39.5927 10.7656 39.8005 10.9031 39.9375 11.1009C40.0343 11.24 40.1633 11.3535 40.3135 11.4318C40.4637 11.5102 40.6306 11.5511 40.8 11.5509C41.064 11.5508 41.3195 11.4579 41.5219 11.2884C41.6979 11.1483 41.9179 11.0752 42.1428 11.0821C42.3677 11.089 42.5828 11.1754 42.75 11.3259L49.5844 17.5697C49.6817 17.6588 49.759 17.7674 49.8114 17.8885C49.8637 18.0096 49.8899 18.1404 49.8881 18.2723C49.8863 18.4042 49.8567 18.5343 49.8011 18.6539C49.7455 18.7736 49.6653 18.8801 49.5656 18.9666C49.446 19.0704 49.3498 19.1985 49.2836 19.3423C49.2173 19.4862 49.1824 19.6425 49.1812 19.8009C49.1785 20.023 49.2476 20.24 49.3781 20.4197C49.4508 20.5239 49.5016 20.6418 49.5273 20.7663C49.553 20.8907 49.5532 21.0191 49.5278 21.1436C49.5023 21.2681 49.4518 21.3862 49.3794 21.4906C49.3069 21.595 49.214 21.6836 49.1063 21.7509L39.6937 27.5822L41.4281 29.2978L55.6875 20.3916L41.3719 6.25406L27.1031 15.1697L28.8656 16.9041L38.6719 10.8384ZM42.6938 30.7125C42.7557 31.5488 42.7745 32.3877 42.75 33.2259L56.25 24.7884V22.2478L42.6938 30.7125ZM42.75 37.9697L56.25 29.5322V27.0009L42.75 35.4384V37.9697ZM17.9344 50.7656C17.6884 50.7646 17.4527 50.6669 17.2781 50.4937L3.75 37.1362V40.1644L17.4937 53.7487L32.8219 44.1675V41.6456L18.4312 50.6269C18.2821 50.7193 18.1099 50.7681 17.9344 50.7675V50.7656Z" fill="url(#paint2_linear_48_216)"/>
<path id="Vector_4" d="M17.8406 45.3947L3.75 31.4728V34.5009L18.0656 48.6384L32.8219 39.4322V36.8822L18.9938 45.5166C18.8157 45.6285 18.6052 45.6774 18.3961 45.6553C18.1869 45.6332 17.9913 45.5414 17.8406 45.3947ZM40.875 31.8572L34.6969 35.7103V43.0041L40.875 39.1416V31.8572ZM25.4719 16.1822L20.0812 19.5478L34.4062 33.6759L39.7969 30.3197L25.4719 16.1822ZM40.575 17.6625C39.9562 17.6625 39.4969 18.0188 39.4969 18.3375C39.4969 18.6469 39.9562 19.0031 40.575 19.0031C41.1937 19.0031 41.6531 18.6469 41.6531 18.3375C41.6531 18.0188 41.1937 17.6625 40.575 17.6625ZM19.4906 32.2041C20.1 32.2041 20.5688 31.8478 20.5688 31.5384C20.5688 31.2197 20.1 30.8634 19.4906 30.8634C18.8719 30.8634 18.4125 31.2197 18.4125 31.5384C18.4125 31.8478 18.8719 32.2041 19.4906 32.2041Z" fill="url(#paint3_linear_48_216)"/>
<path id="Vector_5" d="M10.1149 17.5025C10.5735 17.2927 10.7731 16.7544 10.5633 16.2959C10.3534 15.8373 9.81516 15.6377 9.3566 15.8476L7.67175 16.6194C10.7952 8.31774 18.9155 2.78657 27.8651 3.05015C28.3702 3.05997 28.7837 2.67684 28.804 2.16419C28.8138 1.65902 28.4217 1.24404 27.9181 1.22525C18.133 0.943307 9.26764 7.02393 5.90908 16.1344L5.04282 14.2405C4.833 13.7819 4.29471 13.5823 3.83616 13.7921C3.54787 13.9195 3.36587 14.1843 3.31842 14.4713C3.29024 14.6417 3.31439 14.83 3.38784 14.9988L5.12035 18.7867C5.22226 19.0063 5.4063 19.175 5.63208 19.2584C5.85787 19.3418 6.10745 19.337 6.32701 19.2351L10.1149 17.5025ZM49.8347 42.8217C49.5554 42.9506 49.3644 43.2138 49.3169 43.5009C49.2888 43.6713 49.3129 43.8596 49.3864 44.0283C49.5962 44.4869 50.1345 44.6865 50.5945 44.4677L52.1912 43.7273C48.9793 51.8393 40.9501 57.2104 32.1185 56.9572C31.6597 56.9458 31.2641 57.2766 31.1914 57.7161C31.1854 57.752 31.178 57.7968 31.1796 57.8431C31.1698 58.3483 31.5619 58.7633 32.0655 58.7821C41.7789 59.0522 50.5905 53.0732 53.9956 44.0718L54.9127 46.0479C55.1226 46.5064 55.6609 46.706 56.1209 46.4872C56.2299 46.4377 56.3279 46.3669 56.4092 46.279C56.4905 46.1912 56.5534 46.088 56.5944 45.9755C56.6353 45.8629 56.6533 45.7434 56.6475 45.6238C56.6416 45.5043 56.612 45.3871 56.5602 45.2791L54.8083 41.4971C54.5985 41.0386 54.0602 40.839 53.6002 41.0578L49.8347 42.8217Z" fill="white"/>
</g>
<defs>
<linearGradient id="paint0_linear_48_216" x1="4.3125" y1="38.4073" x2="45.7068" y2="38.4073" gradientUnits="userSpaceOnUse">
<stop stop-color="#8968EA"/>
<stop offset="0.501666" stop-color="#9881EF"/>
<stop offset="1" stop-color="#CA88F3"/>
</linearGradient>
<linearGradient id="paint1_linear_48_216" x1="12.3281" y1="24.8962" x2="47.6719" y2="24.8962" gradientUnits="userSpaceOnUse">
<stop stop-color="#8968EA"/>
<stop offset="0.501666" stop-color="#9881EF"/>
<stop offset="1" stop-color="#CA88F3"/>
</linearGradient>
<linearGradient id="paint2_linear_48_216" x1="3.75" y1="30.0014" x2="56.25" y2="30.0014" gradientUnits="userSpaceOnUse">
<stop stop-color="#8968EA"/>
<stop offset="0.501666" stop-color="#9881EF"/>
<stop offset="1" stop-color="#CA88F3"/>
</linearGradient>
<linearGradient id="paint3_linear_48_216" x1="3.75" y1="32.4103" x2="41.6531" y2="32.4103" gradientUnits="userSpaceOnUse">
<stop stop-color="#8968EA"/>
<stop offset="0.501666" stop-color="#9881EF"/>
<stop offset="1" stop-color="#CA88F3"/>
</linearGradient>
<clipPath id="clip0_48_216">
<rect width="60" height="60" fill="white"/>
</clipPath>
</defs>
</svg>
