<svg width="60" height="60" viewBox="0 0 60 60" fill="none" xmlns="http://www.w3.org/2000/svg">
<g id="bank">
<path id="Vector" d="M20.9092 51.6636C20.6274 51.2455 20.0637 51.1364 19.6455 51.4182C19.2274 51.7 19.1183 52.2636 19.4001 52.6818L20.4364 54.2182C11.7364 52.4909 4.95463 45.3818 3.75463 36.5091C3.6819 36.0091 3.23645 35.6636 2.72736 35.7273C2.22735 35.8 1.8819 36.2545 1.94554 36.7545C3.26372 46.4545 10.7092 54.2091 20.2455 56.0364L18.5183 57.2C18.1001 57.4818 17.991 58.0455 18.2728 58.4636C18.4455 58.7273 18.7364 58.8636 19.0274 58.8636C19.2001 58.8636 19.3819 58.8091 19.5364 58.7091L22.991 56.3818C23.191 56.2455 23.3274 56.0364 23.3728 55.8C23.4183 55.5636 23.3728 55.3182 23.2364 55.1182L20.9092 51.6636ZM39.4092 8.34545C39.5819 8.6 39.8728 8.74545 40.1637 8.74545C40.3364 8.74545 40.5183 8.69091 40.6728 8.59091C41.091 8.30909 41.2001 7.74546 40.9092 7.32727L39.9183 5.87273C48.4455 7.71818 55.0546 14.7636 56.2455 23.5182C56.3092 23.9727 56.7001 24.3091 57.1455 24.3091C57.1819 24.3091 57.2274 24.3091 57.2728 24.3C57.7728 24.2273 58.1183 23.7727 58.0546 23.2727C56.7364 13.6455 49.4001 5.92727 39.9637 4.03636L41.7637 2.80909C42.1819 2.52727 42.291 1.96364 42.0001 1.54545C41.9334 1.446 41.8476 1.36085 41.7477 1.29498C41.6477 1.22911 41.5356 1.18384 41.4179 1.16183C41.3002 1.13982 41.1794 1.1415 41.0623 1.16679C40.9453 1.19208 40.8345 1.24045 40.7365 1.30909L37.291 3.65455C36.8728 3.93636 36.7637 4.5 37.0546 4.91818L39.4092 8.34545Z" fill="white"/>
<path id="Vector_2" d="M56.4275 54.9909H50.8184V56.1364H47.7456V54.9909H42.1456V56.1364H39.0729V54.9909H33.4638V56.1364H31.7093V58.1909H58.182V56.1364H56.4275V54.9909ZM52.0093 42.1364H55.2365V53.1636H52.0093V42.1364ZM31.7093 37.1182V39.1727H33.4638V40.3182H39.0729V39.1727H42.1456V40.3182H47.7456V39.1727H50.8184V40.3182H56.4275V39.1727H58.182V37.1182H31.7093ZM34.6547 42.1364H37.882V53.1636H34.6547V42.1364ZM43.3275 42.1364H46.5547V53.1636H43.3275V42.1364ZM34.5184 35.3H55.3729L44.9456 28.5455L34.5184 35.3ZM26.5365 28.2727H20.9275V29.4182H17.8547V28.2727H12.2547V29.4182H9.182V28.2727H3.57291V29.4182H1.81836V31.4818H28.2911V29.4182H26.5365V28.2727ZM22.1184 15.4273H25.3456V26.4545H22.1184V15.4273ZM1.81836 12.4636H3.57291V13.6091H9.182V12.4636H12.2547V13.6091H17.8547V12.4636H20.9275V13.6091H26.5365V12.4636H28.2911V10.4H1.81836V12.4636ZM4.76381 15.4273H7.99109V26.4545H4.76381V15.4273ZM13.4365 15.4273H16.6638V26.4545H13.4365V15.4273ZM15.0547 1.82727L4.62745 8.58182H25.482L15.0547 1.82727Z" fill="url(#paint0_linear_47_212)"/>
</g>
<defs>
<linearGradient id="paint0_linear_47_212" x1="1.81836" y1="30.0091" x2="58.182" y2="30.0091" gradientUnits="userSpaceOnUse">
<stop stop-color="#8968EA"/>
<stop offset="0.501666" stop-color="#9881EF"/>
<stop offset="1" stop-color="#CA88F3"/>
</linearGradient>
</defs>
</svg>
