<svg width="60" height="60" viewBox="0 0 60 60" fill="none" xmlns="http://www.w3.org/2000/svg">
<path d="M44.606 22.9794C45.2339 22.9794 45.84 23.0744 46.4104 23.2503L51.6081 18.0879L49.1856 15.6819L41.8383 22.9794H44.606ZM55.1076 21.5638L53.7622 20.2276L49.0552 24.9027C50.0738 25.9849 50.6992 27.4365 50.6992 29.0313V30.2217L55.1076 25.8432C56.2975 24.6615 56.2975 22.7456 55.1076 21.5638ZM47.0313 13.5423L38.3162 4.8863C37.1263 3.70457 35.1973 3.70457 34.0076 4.8863L15.7908 22.9795H37.5297L47.0313 13.5423ZM12 35.5974H16.6412V39H12V35.5974Z" fill="white"/>
<path d="M44.9288 26H7.07117C5.37496 26 4 27.3713 4 29.063V52.937C4 54.6287 5.37496 56 7.07117 56H44.9288C46.6249 56 48 54.6287 48 52.937V29.063C48 27.3713 46.6249 26 44.9288 26ZM8.98901 32.6463H19.81V42.2165H8.98901V32.6463ZM14.9636 49.3536H8.8935V46.2906H14.9636V49.3536ZM24.3444 49.3536H18.2744V46.2906H24.3444V49.3536ZM33.7255 49.3536H27.6555V46.2906H33.7255V49.3536ZM43.1065 49.3536H37.0364V46.2906H43.1065V49.3536Z" fill="url(#paint0_linear_47_166)"/>
<defs>
<linearGradient id="paint0_linear_47_166" x1="4" y1="41" x2="48" y2="41" gradientUnits="userSpaceOnUse">
<stop stop-color="#8968EA"/>
<stop offset="0.501666" stop-color="#9881EF"/>
<stop offset="1" stop-color="#CA88F3"/>
</linearGradient>
</defs>
</svg>
