<svg width="60" height="60" viewBox="0 0 60 60" fill="none" xmlns="http://www.w3.org/2000/svg">
<g id="speed">
<path id="Vector" d="M31.7541 28.6716C29.9303 27.633 27.829 28.455 26.9599 29.9371C25.9932 31.5947 26.5692 33.7195 28.2434 34.6738C31.8128 36.7074 38.2592 38.0493 42.4205 38.7497C39.7248 35.5434 35.3235 30.7051 31.7541 28.6716ZM43.5998 30.1064H57C56.4927 21.4369 51.7935 13.8782 44.873 9.3725L38.1723 20.8284C41.1228 22.9984 43.1569 26.3127 43.5998 30.1064ZM21.8277 20.8284L15.127 9.3725C8.20646 13.8782 3.50733 21.4369 3 30.1064H16.4002C16.8431 26.3127 18.8772 22.9984 21.8277 20.8284ZM35.4291 19.2614L42.1301 7.80499C34.9354 4.06495 25.0646 4.06506 17.8699 7.80499L24.5709 19.2614C27.859 17.7985 32.141 17.7985 35.4291 19.2614ZM23.1441 43.3695C19.49 41.2792 16.9071 37.5692 16.4004 33.2348H3.00011C3.5403 42.4544 8.82071 50.4182 16.4722 54.789C17.2309 55.2224 18.2024 54.9668 18.6406 54.2175L23.7336 45.5111C24.1733 44.7594 23.9049 43.8048 23.1441 43.3695Z" fill="url(#paint0_linear_48_224)"/>
<path id="Vector_2" d="M43.2557 34.7078C45.6007 37.3854 47.2652 39.5893 47.4126 39.7853C47.5988 40.0331 47.7078 40.3298 47.7262 40.6386C47.7446 40.9475 47.6716 41.2549 47.5161 41.5229C47.3607 41.7909 47.1297 42.0076 46.8517 42.1463C46.5738 42.2849 46.261 42.3394 45.9523 42.3028C45.7078 42.274 42.9536 41.9416 39.447 41.2593C38.6493 42.0243 37.7617 42.6907 36.8035 43.2441C36.0406 43.684 35.7714 44.6489 36.2123 45.4087L41.3186 54.209C41.7581 54.9665 42.732 55.2248 43.4926 54.7867C51.1642 50.3688 56.4584 42.3191 57 33H43.5649C43.4982 33.5752 43.3949 34.1456 43.2557 34.7078Z" fill="white"/>
</g>
<defs>
<linearGradient id="paint0_linear_48_224" x1="3" y1="30" x2="57" y2="30" gradientUnits="userSpaceOnUse">
<stop stop-color="#8968EA"/>
<stop offset="0.501666" stop-color="#9881EF"/>
<stop offset="1" stop-color="#CA88F3"/>
</linearGradient>
</defs>
</svg>
