<svg width="50" height="50" viewBox="0 0 50 50" fill="none" xmlns="http://www.w3.org/2000/svg">
<path d="M13.3682 24.6399L18.1962 26.4088L20.0783 32.3589C20.1602 32.761 20.6511 32.8414 20.9785 32.6002L23.6789 30.4292C23.9243 30.1879 24.3335 30.1879 24.6608 30.4292L29.4888 33.8867C29.8161 34.1279 30.3071 33.9671 30.3889 33.565L33.9895 16.6796C34.0713 16.2775 33.6622 15.8755 33.253 16.0363L13.3682 23.5946C12.8773 23.7554 12.8773 24.479 13.3682 24.6399ZM19.8328 25.5243L29.3251 19.8154C29.4888 19.735 29.6525 19.9763 29.4888 20.0567L21.7149 27.2129C21.4694 27.4541 21.2239 27.7757 21.2239 28.1778L20.9785 30.1075C20.9785 30.3488 20.5693 30.4292 20.4875 30.1075L19.5055 26.5696C19.26 26.1676 19.4237 25.6851 19.8328 25.5243Z" fill="url(#paint0_linear_76_1134)"/>
<defs>
<linearGradient id="paint0_linear_76_1134" x1="13" y1="25" x2="34" y2="25" gradientUnits="userSpaceOnUse">
<stop stop-color="#8968EA"/>
<stop offset="0.501666" stop-color="#9881EF"/>
<stop offset="1" stop-color="#CA88F3"/>
</linearGradient>
</defs>
</svg>
