<svg width="50" height="50" viewBox="0 0 50 50" fill="none" xmlns="http://www.w3.org/2000/svg">
<path d="M34.7957 30.6644C34.7957 30.5753 34.7081 30.5753 34.7081 30.4863C34.358 29.774 33.5702 28.8836 32.5198 27.9041C31.9946 27.4589 31.732 27.1027 31.5569 26.9247C31.2943 26.5685 31.2943 26.3014 31.3819 25.9452C31.4694 25.6781 31.8195 25.2329 32.4323 24.4315C32.7824 23.9863 32.9574 23.7192 33.22 23.4521C34.533 21.6712 35.1458 20.5137 34.9707 19.9794L34.8832 19.8904C34.7957 19.8014 34.7081 19.7123 34.533 19.7123C34.358 19.6233 34.0954 19.6233 33.8328 19.7123H30.5066C30.419 19.7123 30.419 19.7123 30.2439 19.7123C30.1564 19.7123 30.0689 19.7123 30.0689 19.7123H29.9814H29.8938L29.8063 19.8014C29.7187 19.8904 29.7187 19.8904 29.7187 19.9794C29.3686 20.9589 28.9309 21.7603 28.4933 22.6507C28.2307 23.0959 27.9681 23.5411 27.7055 23.8973C27.4429 24.2534 27.2678 24.5205 27.0928 24.6986C26.9177 24.8767 26.7426 24.9658 26.6551 25.1438C26.5676 25.2329 26.3925 25.3219 26.3925 25.2329C26.305 25.2329 26.2174 25.2329 26.2174 25.1438C26.1299 25.0548 26.0424 24.9657 25.9548 24.8767C25.8673 24.7877 25.8673 24.6096 25.7798 24.4315C25.7798 24.2534 25.7798 24.0753 25.7798 23.9863C25.7798 23.8973 25.7798 23.6301 25.7798 23.4521C25.7798 23.1849 25.7798 23.0068 25.7798 22.9178C25.7798 22.6507 25.7798 22.2945 25.7798 21.9384C25.7798 21.5822 25.7798 21.3151 25.7798 21.137C25.7798 20.9589 25.7798 20.6918 25.7798 20.5137C25.7798 20.2466 25.7798 20.0685 25.7798 19.9794C25.7798 19.8904 25.6923 19.7123 25.6923 19.6233C25.6047 19.5342 25.5172 19.4452 25.4296 19.3562C25.3421 19.2671 25.167 19.2671 25.0795 19.1781C24.6419 19.089 24.1167 19 23.5039 19C22.1034 19 21.1405 19.089 20.7904 19.2671C20.6154 19.3562 20.4403 19.4452 20.3528 19.6233C20.1777 19.8014 20.1777 19.8904 20.2652 19.8904C20.7029 19.9795 21.053 20.1575 21.2281 20.4247L21.3156 20.6027C21.4032 20.6918 21.4031 20.8699 21.4907 21.137C21.5782 21.4041 21.5782 21.6712 21.5782 22.0274C21.5782 22.5616 21.5782 23.0959 21.5782 23.4521C21.5782 23.8973 21.4907 24.1644 21.4907 24.4315C21.4907 24.6986 21.4032 24.8767 21.3156 24.9658C21.2281 25.1438 21.2281 25.2329 21.1405 25.2329C21.1405 25.2329 21.1405 25.3219 21.053 25.3219C20.9655 25.3219 20.8779 25.411 20.7029 25.411C20.6153 25.411 20.4403 25.3219 20.3528 25.2329C20.1777 25.1438 20.0026 24.9658 19.9151 24.7877C19.74 24.6096 19.565 24.3425 19.3899 23.9863C19.2148 23.6301 18.9522 23.274 18.7772 22.7397L18.6021 22.3836C18.5146 22.2055 18.3395 21.8493 18.1644 21.4041C17.9894 20.9589 17.8143 20.6027 17.6392 20.1575C17.5517 19.9795 17.4642 19.8904 17.3766 19.8014H17.2891C17.2891 19.8014 17.2016 19.7123 17.114 19.7123C17.0265 19.7123 16.939 19.6233 16.8514 19.6233H13.7003C13.3501 19.6233 13.1751 19.7123 13.0875 19.8014L13 19.8904C13 19.8904 13 19.9794 13 20.0685C13 20.1575 13 20.2466 13.0875 20.4247C13.5252 21.4931 14.0504 22.5616 14.5756 23.6301C15.1008 24.6096 15.626 25.5 15.9761 26.1233C16.4138 26.7466 16.7639 27.3699 17.2016 27.9041C17.6392 28.4384 17.9018 28.7945 17.9894 28.9726C18.1644 29.1507 18.252 29.2397 18.3395 29.3288L18.6021 29.5959C18.7772 29.774 19.0398 30.0411 19.3899 30.3082C19.74 30.5753 20.1777 30.8425 20.6153 31.1096C21.053 31.3767 21.5782 31.5548 22.1034 31.7329C22.7161 31.911 23.2413 32 23.7665 31.911H25.0795C25.3421 31.911 25.5172 31.8219 25.6923 31.6438L25.7798 31.5548C25.7798 31.4658 25.8673 31.4658 25.8673 31.3767C25.8673 31.2877 25.8673 31.1986 25.8673 31.0206C25.8673 30.6644 25.8673 30.3973 25.9548 30.1301C26.0424 29.863 26.0424 29.6849 26.1299 29.5069C26.2175 29.3288 26.305 29.2397 26.3925 29.1507C26.48 29.0616 26.5676 28.9726 26.5676 28.9726H26.6551C26.8302 28.8836 27.0928 28.9726 27.2678 29.1507C27.5304 29.3288 27.793 29.5959 27.9681 29.863C28.1432 30.1301 28.4058 30.3973 28.7559 30.7534C29.106 31.1096 29.3686 31.3767 29.5437 31.4658L29.8063 31.6438C29.9813 31.7329 30.1564 31.8219 30.419 31.911C30.6816 32 30.8567 32 31.0317 32L34.0079 31.911C34.2705 31.911 34.533 31.8219 34.7081 31.7329C34.8832 31.6438 34.9707 31.5548 34.9707 31.3767C34.9707 31.2877 34.9707 31.1096 34.9707 31.0206C34.7956 30.8425 34.7957 30.7534 34.7957 30.6644Z" fill="url(#paint0_linear_76_1137)"/>
<defs>
<linearGradient id="paint0_linear_76_1137" x1="13" y1="25.5" x2="35" y2="25.5" gradientUnits="userSpaceOnUse">
<stop stop-color="#8968EA"/>
<stop offset="0.501666" stop-color="#9881EF"/>
<stop offset="1" stop-color="#CA88F3"/>
</linearGradient>
</defs>
</svg>
