<svg width="50" height="50" viewBox="0 0 50 50" fill="none" xmlns="http://www.w3.org/2000/svg">
<path d="M29.9319 15.4747C26.6649 14.8418 23.2723 14.8418 20.0052 15.4747C18.5602 15.7912 16.7382 17.5634 16.4241 18.9559C15.8586 21.6776 15.8586 24.4625 16.4241 27.1842C16.801 28.5766 18.623 30.3489 20.0052 30.6653C20.0681 30.6653 20.1309 30.7286 20.1309 30.7919V34.7795C20.1309 34.9694 20.3822 35.096 20.5079 34.9061L22.3927 32.9439C22.3927 32.9439 23.9005 31.3616 24.1518 31.1084C24.1518 31.1084 24.2147 31.0451 24.2775 31.0451C26.1623 31.1084 28.1099 30.9185 29.9948 30.6021C31.4398 30.2856 33.2618 28.5133 33.5759 27.1209C34.1414 24.3992 34.1414 21.6143 33.5759 18.8926C33.199 17.5634 31.377 15.7912 29.9319 15.4747ZM29.9948 27.374C29.6806 28.007 29.3037 28.5133 28.6754 28.8298C28.4869 28.8931 28.2984 28.9564 28.1099 29.0197C27.8586 28.9564 27.6702 28.8931 27.4817 28.8298C25.4712 28.007 23.5864 26.8677 22.0785 25.222C21.2618 24.2726 20.5707 23.1966 20.0052 22.0573C19.7539 21.4877 19.5026 20.9813 19.3141 20.4117C19.1257 19.9053 19.4398 19.399 19.7539 19.0192C20.0681 18.6394 20.445 18.3862 20.8848 18.1964C21.199 18.0065 21.5131 18.1331 21.7644 18.3862C22.267 19.0192 22.7696 19.6521 23.1466 20.3484C23.3979 20.7914 23.3351 21.2978 22.8953 21.6143C22.7696 21.6776 22.7068 21.7408 22.5812 21.8674C22.5183 21.9307 22.3927 21.994 22.3298 22.1206C22.2042 22.3105 22.2042 22.5004 22.267 22.6903C22.7696 24.146 23.712 25.2853 25.1571 25.9183C25.4084 26.0449 25.5969 26.1082 25.911 26.1082C26.3508 26.0449 26.5393 25.5385 26.8534 25.2853C27.1675 25.0322 27.5445 25.0322 27.9215 25.222C28.2356 25.4119 28.5497 25.6651 28.9267 25.9183C29.2408 26.1715 29.555 26.3613 29.8691 26.6145C30.0576 26.7411 30.1204 27.0576 29.9948 27.374ZM27.356 22.627C27.2304 22.627 27.2932 22.627 27.356 22.627C27.1047 22.627 27.0419 22.5004 26.9791 22.3105C26.9791 22.1839 26.9791 21.994 26.9162 21.8674C26.8534 21.6143 26.7277 21.3611 26.4764 21.1712C26.3508 21.1079 26.2251 21.0446 26.0995 20.9813C25.911 20.918 25.7853 20.918 25.5969 20.918C25.4084 20.8547 25.3455 20.7281 25.3455 20.5383C25.3455 20.4117 25.534 20.2851 25.6597 20.2851C26.6649 20.3484 27.4188 20.918 27.5445 22.1206C27.5445 22.1839 27.5445 22.3105 27.5445 22.3738C27.5445 22.5004 27.4817 22.627 27.356 22.627ZM26.7277 19.842C26.4136 19.7154 26.0995 19.5888 25.7225 19.5255C25.5969 19.5255 25.4084 19.4623 25.2827 19.4623C25.0942 19.4623 24.9686 19.3357 25.0314 19.1458C25.0314 18.9559 25.1571 18.8293 25.3455 18.8926C25.9738 18.9559 26.5393 19.0825 27.1047 19.3357C28.2356 19.9053 28.8639 20.8547 29.0524 22.1206C29.0524 22.1839 29.0524 22.2472 29.0524 22.3105C29.0524 22.4371 29.0524 22.5637 29.0524 22.7536C29.0524 22.8169 29.0524 22.8801 29.0524 22.9434C28.9895 23.1966 28.5497 23.2599 28.4869 22.9434C28.4869 22.8801 28.4241 22.7536 28.4241 22.6903C28.4241 22.1206 28.2984 21.551 28.0471 21.0446C27.6702 20.475 27.2304 20.0952 26.7277 19.842ZM30.1204 23.6397C29.9319 23.6397 29.8063 23.4498 29.8063 23.2599C29.8063 22.8801 29.7435 22.5004 29.6806 22.1206C29.4293 20.0952 27.7958 18.4495 25.8482 18.1331C25.534 18.0698 25.2199 18.0698 24.9686 18.0065C24.7801 18.0065 24.5288 18.0065 24.466 17.7533C24.4031 17.5634 24.5916 17.3735 24.7801 17.3735C24.8429 17.3735 24.9058 17.3735 24.9058 17.3735C25.0314 17.3735 27.4817 17.4368 24.9058 17.3735C27.5445 17.4368 29.7435 19.2091 30.1832 21.8674C30.2461 22.3105 30.3089 22.7536 30.3089 23.2599C30.4346 23.4498 30.3089 23.6397 30.1204 23.6397Z" fill="url(#paint0_linear_76_1143)"/>
<defs>
<linearGradient id="paint0_linear_76_1143" x1="16" y1="25" x2="34" y2="25" gradientUnits="userSpaceOnUse">
<stop stop-color="#8968EA"/>
<stop offset="0.501666" stop-color="#9881EF"/>
<stop offset="1" stop-color="#CA88F3"/>
</linearGradient>
</defs>
</svg>
