<svg width="50" height="50" viewBox="0 0 50 50" fill="none" xmlns="http://www.w3.org/2000/svg">
<path d="M32.2195 17.7708C30.4321 15.9896 28.0488 15 25.5331 15C20.3031 15 16.0662 19.2222 16.0662 24.434C16.0662 26.0833 16.5296 27.7326 17.324 29.1181L16 34L21.0314 32.6806C22.4216 33.4062 23.9442 33.8021 25.5331 33.8021C30.7631 33.8021 35 29.5799 35 24.3681C34.9338 21.9271 34.007 19.5521 32.2195 17.7708ZM30.101 27.7986C29.9024 28.3264 28.9756 28.8542 28.5122 28.9201C28.115 28.9861 27.5854 28.9861 27.0557 28.8542C26.7247 28.7222 26.2613 28.5903 25.7317 28.3264C23.3484 27.3368 21.8258 24.9618 21.6934 24.7639C21.561 24.6319 20.7003 23.5104 20.7003 22.3229C20.7003 21.1354 21.2962 20.6076 21.4948 20.3437C21.6934 20.0799 21.9582 20.0799 22.1568 20.0799C22.2892 20.0799 22.4878 20.0799 22.6202 20.0799C22.7526 20.0799 22.9512 20.0139 23.1498 20.4757C23.3484 20.9375 23.8118 22.125 23.878 22.191C23.9442 22.3229 23.9442 22.4549 23.878 22.5868C23.8118 22.7188 23.7456 22.8507 23.6132 22.9826C23.4808 23.1146 23.3484 23.3125 23.2822 23.3785C23.1498 23.5104 23.0174 23.6424 23.1498 23.8403C23.2822 24.1042 23.7456 24.8299 24.4739 25.4896C25.4007 26.2812 26.1289 26.5451 26.3937 26.6771C26.6585 26.809 26.7909 26.7431 26.9233 26.6111C27.0557 26.4792 27.5192 25.9514 27.6516 25.6875C27.784 25.4236 27.9826 25.4896 28.1812 25.5556C28.3798 25.6215 29.5714 26.2153 29.77 26.3472C30.0348 26.4792 30.1672 26.5451 30.2334 26.6111C30.2996 26.809 30.2997 27.2708 30.101 27.7986Z" fill="url(#paint0_linear_76_1140)"/>
<defs>
<linearGradient id="paint0_linear_76_1140" x1="16" y1="24.5" x2="35" y2="24.5" gradientUnits="userSpaceOnUse">
<stop stop-color="#8968EA"/>
<stop offset="0.501666" stop-color="#9881EF"/>
<stop offset="1" stop-color="#CA88F3"/>
</linearGradient>
</defs>
</svg>
